<svg width="1440" height="138" viewBox="0 0 1440 138" fill="none" xmlns="http://www.w3.org/2000/svg">
<path d="M0 64.4549C0 64.4549 212.011 19.8002 347.329 34.5647C462.507 47.1319 516.784 105.576 632.303 114.77C803.882 128.426 890.449 23.898 1062.6 22.1104C1214.59 20.5323 1303.57 35.5633 1446 86.8726" stroke="#6FADD4" stroke-width="44" stroke-linecap="round"/>
<path d="M1310.59 54.3422L1303.96 52.4735L1304.44 50.759L1306.64 51.3787L1310.41 38.0124L1308.21 37.3927L1308.69 35.6782L1315.32 37.5469L1314.84 39.2614L1312.64 38.6417L1308.87 52.008L1311.07 52.6277L1310.59 54.3422ZM1320.8 57.0961C1320.37 57.089 1319.91 57.0526 1319.41 56.9868C1318.93 56.9231 1318.5 56.8394 1318.13 56.7356C1316.85 56.3733 1315.97 55.7519 1315.49 54.8715C1315.02 53.9912 1315 52.7877 1315.43 51.2612L1317.31 44.5612L1315.88 44.1575L1316.38 42.3754L1317.82 42.779L1318.84 39.1582L1320.96 39.7557L1319.94 43.3765L1324.31 44.6096L1323.81 46.3917L1319.44 45.1586L1317.82 50.8999C1317.63 51.5617 1317.5 52.0848 1317.42 52.4692C1317.35 52.8462 1317.36 53.2217 1317.45 53.5959C1317.53 53.9433 1317.69 54.2287 1317.94 54.4521C1318.19 54.6701 1318.62 54.8628 1319.21 55.0302C1319.56 55.1276 1319.93 55.1805 1320.33 55.1886C1320.74 55.1893 1321.04 55.1791 1321.22 55.158L1321.33 55.1898L1320.8 57.0961ZM1335.6 54.8253L1326.31 52.2097C1326.09 52.9843 1326.02 53.6939 1326.09 54.3386C1326.16 54.9757 1326.35 55.5358 1326.65 56.0187C1326.94 56.4898 1327.33 56.8908 1327.81 57.2217C1328.3 57.5547 1328.87 57.8123 1329.52 57.9945C1330.37 58.2361 1331.28 58.3095 1332.24 58.2147C1333.21 58.1146 1333.93 57.951 1334.39 57.724L1334.5 57.7558L1333.85 60.0681C1333.05 60.1676 1332.25 60.214 1331.45 60.2072C1330.65 60.2005 1329.84 60.0817 1329.02 59.8507C1326.93 59.2617 1325.45 58.238 1324.6 56.7795C1323.75 55.3135 1323.61 53.539 1324.2 51.4561C1324.78 49.3957 1325.8 47.918 1327.26 47.023C1328.73 46.1301 1330.38 45.9422 1332.22 46.4592C1333.92 46.938 1335.09 47.803 1335.72 49.054C1336.37 50.3073 1336.43 51.8475 1335.92 53.6748L1335.6 54.8253ZM1333.99 52.6195C1334.29 51.5044 1334.26 50.564 1333.87 49.7981C1333.49 49.0343 1332.74 48.4935 1331.61 48.1757C1330.48 47.8558 1329.48 47.9351 1328.61 48.4137C1327.75 48.8944 1327.14 49.6183 1326.77 50.5855L1333.99 52.6195ZM1347.86 53.7389L1347.74 53.7072C1347.45 53.543 1347.16 53.4035 1346.86 53.2886C1346.58 53.1684 1346.24 53.0511 1345.83 52.9367C1345.18 52.7523 1344.5 52.721 1343.81 52.8427C1343.12 52.9568 1342.43 53.1638 1341.74 53.4635L1339.22 62.4082L1337.1 61.8108L1340.65 49.2115L1342.77 49.809L1342.24 51.6701C1343.28 51.2306 1344.15 50.9618 1344.87 50.8637C1345.6 50.7601 1346.29 50.8027 1346.96 50.9912C1347.33 51.095 1347.6 51.1815 1347.75 51.2507C1347.92 51.3124 1348.15 51.4161 1348.47 51.562L1347.86 53.7389ZM1356.75 67.347L1354.64 66.7527L1355.01 65.4105C1354.79 65.4853 1354.48 65.5938 1354.1 65.7358C1353.72 65.8724 1353.36 65.966 1353.02 66.0166C1352.62 66.09 1352.17 66.1184 1351.68 66.102C1351.19 66.093 1350.63 66.0017 1350.01 65.828C1348.88 65.508 1348.02 64.8609 1347.45 63.8864C1346.87 62.912 1346.74 61.842 1347.07 60.6764C1347.34 59.7214 1347.76 59.0079 1348.33 58.5357C1348.91 58.0582 1349.63 57.7572 1350.49 57.6329C1351.35 57.5106 1352.33 57.5408 1353.44 57.7234C1354.55 57.9061 1355.73 58.1411 1356.98 58.4284L1357.07 58.1013C1357.21 57.62 1357.24 57.1971 1357.15 56.8326C1357.08 56.4701 1356.9 56.1542 1356.64 55.8847C1356.39 55.627 1356.06 55.4088 1355.66 55.23C1355.25 55.0511 1354.82 54.8971 1354.36 54.7679C1353.8 54.6111 1353.16 54.5115 1352.44 54.4691C1351.71 54.4191 1350.95 54.4305 1350.14 54.5032L1350.02 54.4715L1350.63 52.3171C1351.08 52.3208 1351.71 52.3652 1352.53 52.4502C1353.35 52.5352 1354.14 52.6847 1354.9 52.8986C1355.79 53.1487 1356.54 53.441 1357.15 53.7758C1357.77 54.1051 1358.27 54.5143 1358.65 55.0033C1359.03 55.4827 1359.26 56.0318 1359.36 56.6506C1359.45 57.2695 1359.38 57.985 1359.15 58.7971L1356.75 67.347ZM1355.51 63.6508L1356.5 60.1429C1355.84 59.9983 1355.06 59.8396 1354.16 59.6669C1353.27 59.4964 1352.55 59.4105 1351.99 59.4093C1351.34 59.4106 1350.77 59.5425 1350.29 59.8051C1349.81 60.0601 1349.48 60.5072 1349.3 61.1463C1349.1 61.8682 1349.16 62.4749 1349.49 62.9662C1349.83 63.45 1350.44 63.818 1351.34 64.0702C1352.08 64.2799 1352.8 64.3288 1353.5 64.2168C1354.2 64.0972 1354.87 63.9086 1355.51 63.6508ZM1367.4 70.228C1366.97 70.221 1366.51 70.1846 1366.02 70.1188C1365.54 70.0551 1365.11 69.9714 1364.74 69.8675C1363.45 69.5052 1362.57 68.8839 1362.1 68.0035C1361.63 67.1231 1361.6 65.9197 1362.03 64.3932L1363.92 57.6931L1362.49 57.2895L1362.99 55.5073L1364.42 55.9109L1365.44 52.2902L1367.56 52.8877L1366.54 56.5084L1370.92 57.7415L1370.42 59.5237L1366.04 58.2906L1364.42 64.0319C1364.24 64.6936 1364.11 65.2167 1364.03 65.6012C1363.96 65.9781 1363.97 66.3537 1364.05 66.7279C1364.14 67.0753 1364.3 67.3607 1364.54 67.5841C1364.8 67.8021 1365.22 67.9948 1365.82 68.1621C1366.16 68.2596 1366.54 68.3124 1366.94 68.3206C1367.35 68.3213 1367.64 68.3111 1367.83 68.29L1367.94 68.3218L1367.4 70.228ZM1382.2 67.9573L1372.92 65.3417C1372.7 66.1162 1372.63 66.8258 1372.7 67.4705C1372.77 68.1077 1372.96 68.6677 1373.26 69.1506C1373.55 69.6217 1373.93 70.0228 1374.42 70.3537C1374.91 70.6867 1375.48 70.9443 1376.12 71.1265C1376.98 71.368 1377.89 71.4415 1378.85 71.3467C1379.82 71.2466 1380.53 71.083 1381 70.8559L1381.11 70.8877L1380.46 73.2C1379.66 73.2995 1378.86 73.3459 1378.06 73.3392C1377.25 73.3325 1376.44 73.2137 1375.62 72.9827C1373.53 72.3937 1372.06 71.37 1371.21 69.9115C1370.35 68.4455 1370.22 66.671 1370.81 64.588C1371.39 62.5276 1372.41 61.0499 1373.87 60.155C1375.34 59.2621 1376.99 59.0742 1378.83 59.5911C1380.52 60.07 1381.69 60.9349 1382.33 62.186C1382.98 63.4392 1383.04 64.9795 1382.53 66.8068L1382.2 67.9573ZM1380.6 65.7514C1380.9 64.6364 1380.86 63.6959 1380.48 62.93C1380.1 62.1663 1379.35 61.6255 1378.22 61.3077C1377.08 60.9878 1376.08 61.0671 1375.22 61.5456C1374.36 62.0263 1373.75 62.7503 1373.38 63.7174L1380.6 65.7514Z" fill="black"/>
<path d="M1033.9 29.7109C1032.95 30.1484 1031.9 30.5312 1030.77 30.8594C1029.64 31.1797 1028.55 31.3398 1027.5 31.3398C1026.14 31.3398 1024.89 31.1523 1023.76 30.7773C1022.63 30.4023 1021.66 29.8398 1020.87 29.0898C1020.06 28.332 1019.44 27.3867 1019 26.2539C1018.57 25.1133 1018.35 23.7812 1018.35 22.2578C1018.35 19.4688 1019.16 17.2695 1020.79 15.6602C1022.42 14.043 1024.66 13.2344 1027.5 13.2344C1028.49 13.2344 1029.5 13.3555 1030.54 13.5977C1031.57 13.832 1032.69 14.2344 1033.89 14.8047V17.5586H1033.68C1033.43 17.3711 1033.08 17.125 1032.62 16.8203C1032.16 16.5156 1031.71 16.2617 1031.26 16.0586C1030.72 15.8164 1030.11 15.6172 1029.42 15.4609C1028.74 15.2969 1027.97 15.2148 1027.1 15.2148C1025.15 15.2148 1023.6 15.8438 1022.46 17.1016C1021.33 18.3516 1020.76 20.0469 1020.76 22.1875C1020.76 24.4453 1021.36 26.2031 1022.54 27.4609C1023.73 28.7109 1025.35 29.3359 1027.39 29.3359C1028.14 29.3359 1028.89 29.2617 1029.63 29.1133C1030.38 28.9648 1031.04 28.7734 1031.6 28.5391V24.2617H1026.93V22.2227H1033.9V29.7109ZM1047.95 31H1045.76V29.6055C1045.56 29.7383 1045.3 29.9258 1044.96 30.168C1044.63 30.4023 1044.31 30.5898 1044 30.7305C1043.63 30.9102 1043.21 31.0586 1042.73 31.1758C1042.26 31.3008 1041.7 31.3633 1041.06 31.3633C1039.88 31.3633 1038.88 30.9727 1038.06 30.1914C1037.24 29.4102 1036.83 28.4141 1036.83 27.2031C1036.83 26.2109 1037.04 25.4102 1037.46 24.8008C1037.89 24.1836 1038.5 23.6992 1039.29 23.3477C1040.09 22.9961 1041.04 22.7578 1042.16 22.6328C1043.28 22.5078 1044.48 22.4141 1045.76 22.3516V22.0117C1045.76 21.5117 1045.67 21.0977 1045.49 20.7695C1045.32 20.4414 1045.07 20.1836 1044.74 19.9961C1044.43 19.8164 1044.05 19.6953 1043.61 19.6328C1043.18 19.5703 1042.72 19.5391 1042.24 19.5391C1041.66 19.5391 1041.02 19.6172 1040.31 19.7734C1039.6 19.9219 1038.86 20.1406 1038.11 20.4297H1037.99V18.1914C1038.42 18.0742 1039.04 17.9453 1039.85 17.8047C1040.66 17.6641 1041.46 17.5938 1042.25 17.5938C1043.18 17.5938 1043.98 17.6719 1044.66 17.8281C1045.34 17.9766 1045.94 18.2344 1046.44 18.6016C1046.93 18.9609 1047.3 19.4258 1047.56 19.9961C1047.82 20.5664 1047.95 21.2734 1047.95 22.1172V31ZM1045.76 27.7773V24.1328C1045.09 24.1719 1044.29 24.2305 1043.38 24.3086C1042.47 24.3867 1041.75 24.5 1041.22 24.6484C1040.59 24.8281 1040.08 25.1094 1039.69 25.4922C1039.3 25.8672 1039.1 26.3867 1039.1 27.0508C1039.1 27.8008 1039.33 28.3672 1039.78 28.75C1040.23 29.125 1040.93 29.3125 1041.86 29.3125C1042.63 29.3125 1043.34 29.1641 1043.98 28.8672C1044.62 28.5625 1045.21 28.1992 1045.76 27.7773ZM1058.99 30.8828C1058.57 30.9922 1058.12 31.082 1057.63 31.1523C1057.14 31.2227 1056.71 31.2578 1056.33 31.2578C1054.99 31.2578 1053.98 30.8984 1053.28 30.1797C1052.59 29.4609 1052.24 28.3086 1052.24 26.7227V19.7617H1050.75V17.9102H1052.24V14.1484H1054.44V17.9102H1058.99V19.7617H1054.44V25.7266C1054.44 26.4141 1054.46 26.9531 1054.49 27.3438C1054.52 27.7266 1054.63 28.0859 1054.82 28.4219C1054.99 28.7344 1055.22 28.9648 1055.52 29.1133C1055.82 29.2539 1056.29 29.3242 1056.9 29.3242C1057.26 29.3242 1057.64 29.2734 1058.03 29.1719C1058.42 29.0625 1058.7 28.9727 1058.87 28.9023H1058.99V30.8828ZM1072.61 31H1070.4V23.5469C1070.4 22.9453 1070.37 22.3828 1070.3 21.8594C1070.23 21.3281 1070.1 20.9141 1069.91 20.6172C1069.71 20.2891 1069.43 20.0469 1069.07 19.8906C1068.7 19.7266 1068.22 19.6445 1067.64 19.6445C1067.04 19.6445 1066.41 19.793 1065.75 20.0898C1065.09 20.3867 1064.46 20.7656 1063.86 21.2266V31H1061.66V12.7656H1063.86V19.3633C1064.55 18.793 1065.26 18.3477 1066 18.0273C1066.73 17.707 1067.48 17.5469 1068.26 17.5469C1069.67 17.5469 1070.75 17.9727 1071.49 18.8242C1072.23 19.6758 1072.61 20.9023 1072.61 22.5039V31ZM1087.8 24.6836H1078.16C1078.16 25.4883 1078.28 26.1914 1078.52 26.793C1078.77 27.3867 1079.1 27.875 1079.52 28.2578C1079.93 28.6328 1080.41 28.9141 1080.96 29.1016C1081.52 29.2891 1082.14 29.3828 1082.81 29.3828C1083.7 29.3828 1084.6 29.207 1085.5 28.8555C1086.4 28.4961 1087.05 28.1445 1087.43 27.8008H1087.55V30.2031C1086.8 30.5156 1086.05 30.7773 1085.27 30.9883C1084.5 31.1992 1083.69 31.3047 1082.84 31.3047C1080.66 31.3047 1078.97 30.7188 1077.75 29.5469C1076.53 28.3672 1075.92 26.6953 1075.92 24.5312C1075.92 22.3906 1076.5 20.6914 1077.67 19.4336C1078.84 18.1758 1080.38 17.5469 1082.29 17.5469C1084.05 17.5469 1085.41 18.0625 1086.36 19.0938C1087.32 20.125 1087.8 21.5898 1087.8 23.4883V24.6836ZM1085.66 22.9961C1085.65 21.8398 1085.36 20.9453 1084.78 20.3125C1084.21 19.6797 1083.34 19.3633 1082.17 19.3633C1080.99 19.3633 1080.05 19.7109 1079.34 20.4062C1078.65 21.1016 1078.25 21.9648 1078.16 22.9961H1085.66ZM1099.31 20.3125H1099.2C1098.87 20.2344 1098.55 20.1797 1098.23 20.1484C1097.93 20.1094 1097.57 20.0898 1097.14 20.0898C1096.46 20.0898 1095.81 20.2422 1095.18 20.5469C1094.54 20.8438 1093.93 21.2305 1093.35 21.707V31H1091.14V17.9102H1093.35V19.8438C1094.22 19.1406 1094.99 18.6445 1095.66 18.3555C1096.33 18.0586 1097.01 17.9102 1097.71 17.9102C1098.09 17.9102 1098.37 17.9219 1098.54 17.9453C1098.71 17.9609 1098.97 17.9961 1099.31 18.0508V20.3125ZM1121.14 15.6133H1112.32V20.5352H1119.9V22.5977H1112.32V31H1110V13.5508H1121.14V15.6133ZM1134.59 24.6836H1124.94C1124.94 25.4883 1125.06 26.1914 1125.3 26.793C1125.55 27.3867 1125.88 27.875 1126.3 28.2578C1126.71 28.6328 1127.19 28.9141 1127.74 29.1016C1128.3 29.2891 1128.92 29.3828 1129.59 29.3828C1130.48 29.3828 1131.38 29.207 1132.28 28.8555C1133.18 28.4961 1133.83 28.1445 1134.21 27.8008H1134.33V30.2031C1133.59 30.5156 1132.83 30.7773 1132.05 30.9883C1131.28 31.1992 1130.47 31.3047 1129.62 31.3047C1127.45 31.3047 1125.75 30.7188 1124.53 29.5469C1123.31 28.3672 1122.7 26.6953 1122.7 24.5312C1122.7 22.3906 1123.29 20.6914 1124.45 19.4336C1125.62 18.1758 1127.16 17.5469 1129.07 17.5469C1130.83 17.5469 1132.19 18.0625 1133.14 19.0938C1134.11 20.125 1134.59 21.5898 1134.59 23.4883V24.6836ZM1132.44 22.9961C1132.43 21.8398 1132.14 20.9453 1131.56 20.3125C1130.99 19.6797 1130.12 19.3633 1128.95 19.3633C1127.77 19.3633 1126.83 19.7109 1126.12 20.4062C1125.43 21.1016 1125.04 21.9648 1124.94 22.9961H1132.44ZM1148.88 24.6836H1139.24C1139.24 25.4883 1139.36 26.1914 1139.6 26.793C1139.84 27.3867 1140.18 27.875 1140.6 28.2578C1141 28.6328 1141.48 28.9141 1142.04 29.1016C1142.6 29.2891 1143.22 29.3828 1143.89 29.3828C1144.78 29.3828 1145.68 29.207 1146.57 28.8555C1147.48 28.4961 1148.12 28.1445 1148.51 27.8008H1148.62V30.2031C1147.88 30.5156 1147.12 30.7773 1146.35 30.9883C1145.58 31.1992 1144.77 31.3047 1143.91 31.3047C1141.74 31.3047 1140.05 30.7188 1138.83 29.5469C1137.61 28.3672 1137 26.6953 1137 24.5312C1137 22.3906 1137.58 20.6914 1138.75 19.4336C1139.92 18.1758 1141.46 17.5469 1143.36 17.5469C1145.13 17.5469 1146.49 18.0625 1147.44 19.0938C1148.4 20.125 1148.88 21.5898 1148.88 23.4883V24.6836ZM1146.74 22.9961C1146.73 21.8398 1146.44 20.9453 1145.86 20.3125C1145.29 19.6797 1144.42 19.3633 1143.25 19.3633C1142.07 19.3633 1141.12 19.7109 1140.42 20.4062C1139.73 21.1016 1139.33 21.9648 1139.24 22.9961H1146.74ZM1162.84 31H1160.64V29.6289C1160 30.1758 1159.34 30.6016 1158.66 30.9062C1157.97 31.2109 1157.22 31.3633 1156.42 31.3633C1154.86 31.3633 1153.61 30.7617 1152.69 29.5586C1151.78 28.3555 1151.32 26.6875 1151.32 24.5547C1151.32 23.4453 1151.48 22.457 1151.79 21.5898C1152.11 20.7227 1152.54 19.9844 1153.08 19.375C1153.61 18.7812 1154.23 18.3281 1154.93 18.0156C1155.64 17.7031 1156.38 17.5469 1157.13 17.5469C1157.82 17.5469 1158.43 17.6211 1158.96 17.7695C1159.49 17.9102 1160.05 18.1328 1160.64 18.4375V12.7656H1162.84V31ZM1160.64 27.7773V20.2656C1160.04 20 1159.51 19.8164 1159.04 19.7148C1158.57 19.6133 1158.06 19.5625 1157.51 19.5625C1156.27 19.5625 1155.31 19.9922 1154.62 20.8516C1153.94 21.7109 1153.59 22.9297 1153.59 24.5078C1153.59 26.0625 1153.86 27.2461 1154.39 28.0586C1154.92 28.8633 1155.77 29.2656 1156.95 29.2656C1157.57 29.2656 1158.2 29.1289 1158.84 28.8555C1159.48 28.5742 1160.08 28.2148 1160.64 27.7773ZM1178.7 24.3555C1178.7 25.4492 1178.54 26.4336 1178.23 27.3086C1177.92 28.1836 1177.51 28.918 1176.98 29.5117C1176.43 30.1289 1175.82 30.5938 1175.16 30.9062C1174.49 31.2109 1173.76 31.3633 1172.96 31.3633C1172.22 31.3633 1171.57 31.2734 1171.02 31.0938C1170.46 30.9219 1169.92 30.6875 1169.38 30.3906L1169.24 31H1167.18V12.7656H1169.38V19.2812C1170 18.7734 1170.65 18.3594 1171.35 18.0391C1172.04 17.7109 1172.82 17.5469 1173.69 17.5469C1175.24 17.5469 1176.46 18.1406 1177.35 19.3281C1178.25 20.5156 1178.7 22.1914 1178.7 24.3555ZM1176.42 24.4141C1176.42 22.8516 1176.16 21.668 1175.65 20.8633C1175.13 20.0508 1174.3 19.6445 1173.15 19.6445C1172.51 19.6445 1171.86 19.7852 1171.21 20.0664C1170.55 20.3398 1169.94 20.6953 1169.38 21.1328V28.6328C1170 28.9141 1170.54 29.1094 1170.98 29.2188C1171.44 29.3281 1171.95 29.3828 1172.52 29.3828C1173.74 29.3828 1174.69 28.9844 1175.38 28.1875C1176.07 27.3828 1176.42 26.125 1176.42 24.4141ZM1192.3 31H1190.11V29.6055C1189.91 29.7383 1189.65 29.9258 1189.31 30.168C1188.98 30.4023 1188.66 30.5898 1188.35 30.7305C1187.98 30.9102 1187.56 31.0586 1187.09 31.1758C1186.61 31.3008 1186.05 31.3633 1185.41 31.3633C1184.23 31.3633 1183.23 30.9727 1182.41 30.1914C1181.59 29.4102 1181.18 28.4141 1181.18 27.2031C1181.18 26.2109 1181.39 25.4102 1181.81 24.8008C1182.24 24.1836 1182.85 23.6992 1183.64 23.3477C1184.44 22.9961 1185.39 22.7578 1186.51 22.6328C1187.63 22.5078 1188.83 22.4141 1190.11 22.3516V22.0117C1190.11 21.5117 1190.02 21.0977 1189.84 20.7695C1189.67 20.4414 1189.42 20.1836 1189.09 19.9961C1188.78 19.8164 1188.4 19.6953 1187.96 19.6328C1187.53 19.5703 1187.07 19.5391 1186.59 19.5391C1186.02 19.5391 1185.37 19.6172 1184.66 19.7734C1183.95 19.9219 1183.21 20.1406 1182.46 20.4297H1182.34V18.1914C1182.77 18.0742 1183.39 17.9453 1184.2 17.8047C1185.02 17.6641 1185.82 17.5938 1186.61 17.5938C1187.53 17.5938 1188.33 17.6719 1189.01 17.8281C1189.7 17.9766 1190.29 18.2344 1190.79 18.6016C1191.28 18.9609 1191.66 19.4258 1191.91 19.9961C1192.17 20.5664 1192.3 21.2734 1192.3 22.1172V31ZM1190.11 27.7773V24.1328C1189.44 24.1719 1188.64 24.2305 1187.73 24.3086C1186.82 24.3867 1186.11 24.5 1185.57 24.6484C1184.94 24.8281 1184.43 25.1094 1184.04 25.4922C1183.65 25.8672 1183.45 26.3867 1183.45 27.0508C1183.45 27.8008 1183.68 28.3672 1184.13 28.75C1184.59 29.125 1185.28 29.3125 1186.21 29.3125C1186.98 29.3125 1187.69 29.1641 1188.33 28.8672C1188.97 28.5625 1189.56 28.1992 1190.11 27.7773ZM1206.22 30.1797C1205.49 30.5312 1204.79 30.8047 1204.12 31C1203.47 31.1953 1202.77 31.293 1202.03 31.293C1201.08 31.293 1200.21 31.1562 1199.43 30.8828C1198.64 30.6016 1197.96 30.1797 1197.4 29.6172C1196.83 29.0547 1196.39 28.3438 1196.07 27.4844C1195.76 26.625 1195.61 25.6211 1195.61 24.4727C1195.61 22.332 1196.19 20.6523 1197.36 19.4336C1198.54 18.2148 1200.1 17.6055 1202.03 17.6055C1202.78 17.6055 1203.51 17.7109 1204.23 17.9219C1204.96 18.1328 1205.62 18.3906 1206.22 18.6953V21.1445H1206.11C1205.43 20.6211 1204.74 20.2188 1204.02 19.9375C1203.31 19.6562 1202.61 19.5156 1201.93 19.5156C1200.68 19.5156 1199.7 19.9375 1198.97 20.7812C1198.25 21.6172 1197.89 22.8477 1197.89 24.4727C1197.89 26.0508 1198.24 27.2656 1198.95 28.1172C1199.66 28.9609 1200.65 29.3828 1201.93 29.3828C1202.38 29.3828 1202.83 29.3242 1203.29 29.207C1203.75 29.0898 1204.17 28.9375 1204.54 28.75C1204.86 28.5859 1205.16 28.4141 1205.44 28.2344C1205.72 28.0469 1205.94 27.8867 1206.11 27.7539H1206.22V30.1797ZM1220.94 31H1218.04L1212.79 25.2695L1211.36 26.6289V31H1209.15V12.7656H1211.36V24.4609L1217.72 17.9102H1220.5L1214.41 23.957L1220.94 31Z" fill="black"/>
<path d="M855.097 68.0941C855.377 68.8154 855.508 69.5351 855.493 70.2531C855.482 70.961 855.338 71.6282 855.061 72.2547C854.717 73.0328 854.218 73.7119 853.562 74.2921C852.904 74.8649 851.993 75.3769 850.827 75.8279L848.663 76.6651L851.01 82.7309L848.846 83.5681L842.55 67.2943L846.965 65.5861C847.941 65.2083 848.801 64.9722 849.543 64.8776C850.283 64.7757 850.983 64.7982 851.642 64.945C852.423 65.1207 853.1 65.4534 853.675 65.943C854.257 66.4299 854.731 67.1469 855.097 68.0941ZM852.867 69.0198C852.65 68.4588 852.363 68.0086 852.005 67.6694C851.648 67.3302 851.218 67.107 850.716 66.9997C850.279 66.9092 849.816 66.9039 849.328 66.984C848.844 67.0539 848.259 67.2214 847.574 67.4863L845.432 68.3151L847.948 74.818L849.773 74.1119C850.648 73.7736 851.329 73.4223 851.816 73.0579C852.3 72.6861 852.647 72.2628 852.857 71.7879C853.065 71.3057 853.163 70.8447 853.152 70.4049C853.148 69.9624 853.053 69.5007 852.867 69.0198ZM872.311 74.4898L870.256 75.2847L869.732 73.9295C869.251 74.7438 868.75 75.4192 868.229 75.9559C867.708 76.4926 867.065 76.909 866.3 77.2049C865.017 77.7011 863.868 77.6974 862.853 77.1941C861.834 76.6834 861.032 75.6703 860.445 74.1548L857.38 66.231L859.434 65.4361L862.124 72.3872C862.363 73.0065 862.598 73.5271 862.828 73.949C863.056 74.3636 863.325 74.6909 863.636 74.931C863.956 75.1754 864.302 75.3099 864.671 75.3345C865.041 75.359 865.525 75.2556 866.122 75.0245C866.654 74.8187 867.18 74.4562 867.699 73.9369C868.226 73.4147 868.679 72.833 869.059 72.1917L865.533 63.0767L867.588 62.2817L872.311 74.4898ZM884.701 62.5719C885.095 63.592 885.305 64.5664 885.329 65.4952C885.361 66.4212 885.239 67.2555 884.965 67.9981C884.671 68.7739 884.27 69.4273 883.764 69.9583C883.254 70.4821 882.628 70.8878 881.885 71.1753C881.193 71.4431 880.555 71.5933 879.973 71.6258C879.394 71.6657 878.799 71.6444 878.189 71.562L878.278 72.1811L876.355 72.9253L869.775 55.9193L871.83 55.1243L874.181 61.201C874.573 60.5047 875.036 59.8818 875.569 59.3322C876.099 58.7753 876.768 58.3404 877.577 58.0275C879.02 57.4693 880.371 57.5833 881.63 58.3695C882.896 59.1528 883.92 60.5536 884.701 62.5719ZM882.602 63.4468C882.038 61.9896 881.37 60.9788 880.599 60.4143C879.825 59.8426 878.902 59.7639 877.831 60.1783C877.234 60.4095 876.68 60.7746 876.169 61.2737C875.656 61.7655 875.216 62.3169 874.849 62.9279L877.555 69.9226C878.24 69.9594 878.809 69.9485 879.264 69.8898C879.726 69.8283 880.223 69.6947 880.755 69.4889C881.892 69.0492 882.637 68.3337 882.99 67.3424C883.348 66.341 883.219 65.0425 882.602 63.4468ZM892.377 66.7265L890.322 67.5214L883.743 50.5154L885.798 49.7205L892.377 66.7265ZM893.137 50.0476L890.82 50.944L889.995 48.8128L892.312 47.9164L893.137 50.0476ZM898.519 64.3502L896.465 65.1451L891.742 52.9371L893.796 52.1421L898.519 64.3502ZM909.945 55.8837C910.376 56.9985 910.267 58.092 909.618 59.164C908.977 60.2332 907.858 61.0765 906.262 61.6939C905.359 62.0434 904.487 62.2591 903.648 62.341C902.813 62.4127 902.091 62.4198 901.482 62.3621L900.59 60.056L900.699 60.0137C901.536 60.251 902.409 60.3617 903.316 60.3459C904.22 60.3228 905.036 60.1703 905.765 59.8885C906.668 59.5389 907.319 59.1197 907.716 58.631C908.113 58.1422 908.191 57.5845 907.948 56.9579C907.762 56.477 907.483 56.1663 907.11 56.0256C906.737 55.885 906.124 55.8795 905.269 56.0091C904.952 56.0563 904.54 56.1278 904.033 56.2235C903.533 56.3165 903.07 56.3867 902.644 56.4341C901.463 56.5643 900.541 56.4436 899.878 56.0719C899.219 55.6901 898.735 55.0984 898.425 54.297C898.23 53.7942 898.149 53.2811 898.181 52.7578C898.22 52.2316 898.384 51.7118 898.671 51.1986C898.946 50.6983 899.359 50.2286 899.91 49.7894C900.465 49.3401 901.132 48.9647 901.912 48.6631C902.64 48.3812 903.412 48.1876 904.225 48.0822C905.043 47.9667 905.75 47.9406 906.344 48.004L907.194 50.2008L907.084 50.243C906.41 50.0598 905.647 49.9822 904.795 50.0103C903.941 50.031 903.152 50.181 902.431 50.46C901.681 50.7504 901.103 51.1414 900.699 51.6329C900.291 52.1172 900.197 52.6436 900.417 53.2119C900.612 53.7146 900.915 54.0329 901.327 54.1667C901.732 54.3033 902.308 54.3193 903.054 54.2146C903.467 54.1555 903.924 54.0794 904.424 53.9864C904.931 53.8906 905.356 53.8186 905.697 53.7702C906.736 53.6195 907.617 53.7101 908.34 54.0418C909.066 54.3809 909.601 54.9948 909.945 55.8837ZM924.466 54.312L922.411 55.107L919.722 48.1559C919.505 47.5949 919.269 47.083 919.014 46.6202C918.757 46.1501 918.487 45.8104 918.205 45.6012C917.905 45.3656 917.555 45.2412 917.156 45.228C916.755 45.2075 916.281 45.3029 915.734 45.5144C915.173 45.7314 914.64 46.0968 914.135 46.6104C913.63 47.1241 913.181 47.7044 912.786 48.3513L916.312 57.4664L914.258 58.2613L907.678 41.2553L909.733 40.4604L912.113 46.6136C912.549 45.8336 913.051 45.1618 913.621 44.5981C914.19 44.0344 914.835 43.613 915.557 43.3339C916.875 42.8237 918.035 42.8318 919.034 43.3582C920.033 43.8846 920.822 44.8946 921.4 46.3883L924.466 54.312Z" fill="black"/>
<path d="M707.196 119.581C706.809 119.846 706.458 120.092 706.144 120.319C705.837 120.544 705.424 120.798 704.905 121.08C704.465 121.316 703.978 121.536 703.445 121.741C702.921 121.953 702.329 122.122 701.669 122.248C700.426 122.485 699.261 122.529 698.174 122.379C697.094 122.22 696.106 121.84 695.212 121.239C694.336 120.651 693.584 119.836 692.955 118.795C692.325 117.746 691.868 116.477 691.583 114.989C691.314 113.577 691.272 112.276 691.458 111.087C691.645 109.898 692.04 108.848 692.646 107.937C693.232 107.054 694.003 106.318 694.956 105.73C695.917 105.141 697.027 104.726 698.285 104.485C699.206 104.309 700.144 104.245 701.1 104.293C702.064 104.34 703.159 104.536 704.386 104.882L704.903 107.587L704.731 107.62C703.636 107.01 702.59 106.613 701.592 106.43C700.595 106.247 699.567 106.257 698.508 106.459C697.64 106.625 696.885 106.916 696.241 107.334C695.603 107.742 695.068 108.294 694.636 108.989C694.217 109.665 693.942 110.474 693.811 111.413C693.687 112.344 693.735 113.384 693.955 114.536C694.185 115.74 694.544 116.745 695.032 117.551C695.528 118.355 696.085 118.98 696.703 119.427C697.349 119.892 698.055 120.194 698.821 120.334C699.594 120.465 700.379 120.454 701.177 120.302C702.275 120.092 703.267 119.707 704.154 119.148C705.042 118.589 705.832 117.853 706.524 116.941L706.685 116.91L707.196 119.581ZM720.214 111.724C720.614 113.818 720.393 115.575 719.551 116.992C718.708 118.41 717.385 119.291 715.582 119.636C713.763 119.984 712.201 119.654 710.895 118.647C709.597 117.638 708.747 116.087 708.347 113.992C707.946 111.897 708.164 110.141 708.998 108.725C709.84 107.3 711.169 106.413 712.988 106.065C714.791 105.721 716.347 106.056 717.654 107.071C718.96 108.078 719.814 109.629 720.214 111.724ZM717.981 112.15C717.663 110.485 717.1 109.312 716.294 108.631C715.486 107.942 714.503 107.709 713.344 107.93C712.17 108.155 711.335 108.736 710.838 109.674C710.348 110.603 710.261 111.9 710.58 113.565C710.888 115.176 711.448 116.338 712.26 117.05C713.071 117.754 714.059 117.994 715.226 117.771C716.377 117.551 717.2 116.969 717.695 116.023C718.197 115.068 718.292 113.777 717.981 112.15ZM735.231 115.511L733.067 115.924L732.81 114.577C732.291 115.233 731.722 115.776 731.104 116.204C730.486 116.632 729.782 116.922 728.992 117.073C727.457 117.366 726.124 117.009 724.992 116C723.869 114.99 723.107 113.437 722.706 111.343C722.498 110.253 722.466 109.253 722.61 108.342C722.762 107.431 723.045 106.625 723.46 105.925C723.871 105.242 724.392 104.681 725.024 104.242C725.663 103.802 726.355 103.51 727.1 103.368C727.775 103.239 728.388 103.198 728.937 103.244C729.485 103.282 730.076 103.396 730.709 103.585L729.644 98.0141L731.808 97.6004L735.231 115.511ZM732.462 112.759L731.052 105.381C730.419 105.231 729.862 105.151 729.383 105.139C728.903 105.127 728.391 105.173 727.847 105.277C726.634 105.509 725.771 106.112 725.257 107.085C724.743 108.058 724.634 109.32 724.93 110.87C725.222 112.397 725.705 113.509 726.38 114.208C727.053 114.898 727.965 115.134 729.116 114.914C729.73 114.796 730.325 114.543 730.903 114.154C731.48 113.758 731.999 113.293 732.462 112.759ZM749.066 106.435L739.593 108.246C739.744 109.036 739.995 109.704 740.346 110.25C740.695 110.787 741.113 111.205 741.599 111.501C742.069 111.794 742.594 111.98 743.174 112.06C743.761 112.138 744.385 112.114 745.045 111.988C745.92 111.821 746.765 111.48 747.582 110.966C748.405 110.443 748.972 109.977 749.283 109.568L749.398 109.546L749.849 111.905C749.179 112.351 748.484 112.751 747.764 113.103C747.044 113.456 746.265 113.712 745.429 113.872C743.296 114.279 741.52 114.022 740.103 113.1C738.685 112.17 737.772 110.642 737.366 108.517C736.964 106.414 737.217 104.636 738.124 103.182C739.039 101.726 740.433 100.82 742.305 100.462C744.039 100.13 745.471 100.382 746.601 101.216C747.738 102.048 748.485 103.397 748.842 105.261L749.066 106.435ZM746.643 105.18C746.418 104.046 745.963 103.223 745.276 102.71C744.597 102.195 743.682 102.048 742.531 102.268C741.372 102.489 740.513 103.008 739.953 103.823C739.4 104.636 739.175 105.558 739.276 106.589L746.643 105.18Z" fill="black"/>
<path d="M512.59 73.3804L502.768 88.4988L500.289 87.6721L501.392 72.7712L493.408 85.3773L490.984 84.5691L492.124 66.5554L494.381 67.308L493.271 82.2311L501.285 69.6101L503.519 70.3553L502.342 85.4044L510.434 72.6612L512.59 73.3804ZM517.241 77.2165L514.884 76.4305L515.607 74.2627L517.964 75.0487L517.241 77.2165ZM512.273 91.6684L510.183 90.9715L514.324 78.5539L516.414 79.2508L512.273 91.6684ZM527.538 85.4928L527.427 85.4557C527.14 85.2778 526.854 85.1246 526.567 84.9961C526.291 84.8627 525.952 84.7292 525.552 84.5957C524.907 84.3807 524.236 84.3176 523.54 84.4065C522.845 84.4879 522.145 84.662 521.438 84.9287L518.499 93.7445L516.409 93.0475L520.55 80.6299L522.64 81.3269L522.028 83.1612C523.08 82.7709 523.967 82.5438 524.689 82.4796C525.42 82.4105 526.115 82.486 526.775 82.7059C527.138 82.827 527.398 82.9259 527.553 83.0025C527.711 83.0717 527.945 83.1866 528.254 83.3472L527.538 85.4928ZM538.517 93.7618L529.368 90.7108C529.114 91.4741 529.006 92.1795 529.045 92.8267C529.087 93.4666 529.248 94.0349 529.527 94.5315C529.794 95.0157 530.161 95.4345 530.627 95.7879C531.102 96.1437 531.658 96.4279 532.295 96.6404C533.14 96.9222 534.044 97.0384 535.008 96.9891C535.981 96.9349 536.704 96.8053 537.176 96.6003L537.287 96.6373L536.527 98.9163C535.724 98.978 534.922 98.9865 534.122 98.942C533.321 98.8974 532.517 98.7404 531.709 98.471C529.649 97.7839 528.226 96.6918 527.441 95.1945C526.658 93.6899 526.608 91.9111 527.293 89.8582C527.97 87.8275 529.06 86.3997 530.562 85.5747C532.072 84.7522 533.731 84.6425 535.539 85.2455C537.214 85.8041 538.34 86.7232 538.918 88.0031C539.504 89.2853 539.496 90.8269 538.895 92.6279L538.517 93.7618ZM537.017 91.4826C537.375 90.3832 537.38 89.4419 537.032 88.6587C536.691 87.878 535.965 87.3023 534.853 86.9316C533.734 86.5584 532.731 86.5904 531.844 87.0275C530.965 87.4672 530.317 88.1613 529.902 89.1099L537.017 91.4826ZM551.462 87.7638L551.351 87.7267C551.144 87.5834 550.866 87.4166 550.518 87.2263C550.172 87.0286 549.858 86.8828 549.576 86.7889C548.68 86.4899 547.961 86.4725 547.42 86.7367C546.888 86.9961 546.45 87.6445 546.104 88.6821L545.963 89.1046L549.732 90.3613L549.146 92.1178L545.444 90.8833L541.889 101.544L539.799 100.847L543.354 90.1863L541.942 89.7155L542.528 87.959L543.94 88.4299L544.077 88.0185C544.569 86.5437 545.312 85.5358 546.308 84.9949C547.306 84.4466 548.498 84.4035 549.884 84.8656C550.351 85.0213 550.762 85.1832 551.118 85.3512C551.481 85.5218 551.809 85.6886 552.1 85.8517L551.462 87.7638ZM558.821 95.9248L558.71 95.8878C558.423 95.7099 558.137 95.5567 557.85 95.4282C557.574 95.2947 557.235 95.1613 556.835 95.0278C556.19 94.8128 555.519 94.7497 554.823 94.8385C554.128 94.92 553.428 95.0941 552.721 95.3608L549.782 104.177L547.692 103.48L551.833 91.062L553.923 91.7589L553.311 93.5932C554.363 93.203 555.25 92.9758 555.972 92.9117C556.703 92.8426 557.398 92.918 558.058 93.138C558.421 93.2591 558.681 93.358 558.836 93.4346C558.994 93.5038 559.228 93.6187 559.537 93.7793L558.821 95.9248ZM567.057 109.937L564.978 109.244L565.42 107.921C565.192 107.986 564.881 108.079 564.486 108.203C564.1 108.321 563.737 108.398 563.396 108.432C562.991 108.487 562.544 108.494 562.055 108.455C561.563 108.422 561.013 108.305 560.406 108.102C559.287 107.729 558.462 107.042 557.93 106.042C557.399 105.041 557.325 103.966 557.709 102.817C558.022 101.876 558.476 101.183 559.069 100.739C559.672 100.289 560.403 100.022 561.263 99.9385C562.13 99.8571 563.113 99.9338 564.213 100.169C565.312 100.404 566.479 100.694 567.714 101.04L567.822 100.718C567.98 100.243 568.026 99.822 567.959 99.4539C567.9 99.0883 567.744 98.7646 567.492 98.4829C567.253 98.2136 566.935 97.9801 566.54 97.7824C566.145 97.5847 565.721 97.4105 565.269 97.2597C564.721 97.0769 564.084 96.9471 563.361 96.8704C562.639 96.7863 561.873 96.7615 561.063 96.796L560.952 96.7589L561.66 94.6356C562.105 94.6604 562.735 94.7345 563.55 94.8582C564.365 94.9818 565.147 95.1684 565.896 95.418C566.77 95.7097 567.505 96.0371 568.1 96.4004C568.706 96.7587 569.187 97.1911 569.545 97.6976C569.899 98.1942 570.107 98.7538 570.172 99.3764C570.236 99.999 570.134 100.71 569.867 101.511L567.057 109.937ZM565.998 106.187L567.151 102.73C566.501 102.554 565.73 102.359 564.839 102.144C563.954 101.931 563.236 101.811 562.686 101.784C562.028 101.754 561.454 101.859 560.962 102.099C560.473 102.331 560.123 102.762 559.913 103.392C559.676 104.104 559.712 104.713 560.021 105.219C560.332 105.718 560.928 106.115 561.81 106.409C562.544 106.654 563.262 106.736 563.963 106.657C564.668 106.571 565.346 106.414 565.998 106.187ZM589.202 117.322L587.112 116.625L589.47 109.555C589.648 109.021 589.794 108.498 589.908 107.984C590.029 107.472 590.061 107.042 590.004 106.694C589.94 106.319 589.776 105.996 589.511 105.727C589.247 105.458 588.815 105.223 588.214 105.023C587.629 104.827 586.994 104.78 586.31 104.882C585.628 104.975 584.919 105.151 584.182 105.407C584.148 105.585 584.1 105.792 584.038 106.026C583.978 106.254 583.912 106.478 583.838 106.701L581.187 114.649L579.097 113.952L581.455 106.882C581.638 106.334 581.785 105.806 581.896 105.3C582.017 104.788 582.049 104.358 581.992 104.01C581.928 103.635 581.763 103.316 581.496 103.054C581.232 102.785 580.799 102.55 580.199 102.35C579.628 102.159 579.007 102.109 578.335 102.198C577.67 102.289 576.98 102.458 576.263 102.705L573.172 111.976L571.082 111.28L575.223 98.8619L577.313 99.5589L576.853 100.937C577.686 100.614 578.475 100.408 579.221 100.319C579.975 100.232 580.718 100.312 581.452 100.556C582.297 100.838 582.953 101.254 583.419 101.805C583.894 102.359 584.17 102.999 584.249 103.725C585.331 103.295 586.273 103.041 587.073 102.962C587.876 102.876 588.674 102.965 589.467 103.229C590.831 103.684 591.697 104.434 592.065 105.479C592.442 106.519 592.384 107.78 591.89 109.262L589.202 117.322ZM605.619 116.138L596.47 113.087C596.215 113.851 596.108 114.556 596.147 115.203C596.189 115.843 596.35 116.412 596.629 116.908C596.895 117.392 597.262 117.811 597.729 118.165C598.203 118.52 598.759 118.805 599.397 119.017C600.242 119.299 601.146 119.415 602.109 119.366C603.083 119.312 603.805 119.182 604.277 118.977L604.388 119.014L603.628 121.293C602.825 121.355 602.024 121.363 601.223 121.319C600.423 121.274 599.619 121.117 598.811 120.848C596.751 120.161 595.328 119.068 594.542 117.571C593.759 116.067 593.71 114.288 594.395 112.235C595.072 110.204 596.162 108.776 597.664 107.951C599.173 107.129 600.832 107.019 602.641 107.622C604.316 108.181 605.442 109.1 606.02 110.38C606.605 111.662 606.598 113.204 605.997 115.005L605.619 116.138ZM604.118 113.859C604.477 112.76 604.482 111.819 604.134 111.035C603.793 110.255 603.067 109.679 601.955 109.308C600.836 108.935 599.833 108.967 598.946 109.404C598.066 109.844 597.419 110.538 597.004 111.487L604.118 113.859Z" fill="black"/>
<path d="M179.027 40.2664C178.591 40.439 178.195 40.6012 177.838 40.753C177.488 40.9051 177.03 41.0613 176.461 41.2215C175.98 41.3534 175.456 41.4604 174.891 41.5425C174.332 41.6327 173.718 41.6662 173.046 41.643C171.781 41.5994 170.636 41.384 169.609 40.9968C168.591 40.602 167.713 40.0128 166.973 39.229C166.25 38.4614 165.696 37.5004 165.314 36.3459C164.932 35.1836 164.767 33.8451 164.819 32.3303C164.869 30.8937 165.116 29.6163 165.561 28.4982C166.007 27.3801 166.625 26.4438 167.417 25.6894C168.185 24.9576 169.099 24.4107 170.159 24.0486C171.227 23.6868 172.401 23.528 173.681 23.5721C174.618 23.6045 175.548 23.7499 176.469 24.0084C177.398 24.2671 178.423 24.7012 179.543 25.3105L179.448 28.0627L179.272 28.0567C178.34 27.2193 177.407 26.6009 176.475 26.2013C175.543 25.8017 174.538 25.5834 173.461 25.5462C172.579 25.5157 171.777 25.6327 171.057 25.8971C170.344 26.1539 169.701 26.5734 169.126 27.1554C168.567 27.7224 168.119 28.4496 167.784 29.337C167.456 30.2169 167.273 31.2424 167.232 32.4136C167.19 33.6394 167.317 34.6991 167.615 35.5927C167.92 36.4866 168.325 37.2198 168.829 37.7922C169.355 38.3888 169.977 38.8402 170.693 39.1463C171.418 39.4449 172.186 39.6082 172.998 39.6363C174.115 39.6748 175.168 39.5196 176.157 39.1707C177.146 38.8218 178.079 38.2794 178.957 37.5436L179.121 37.5493L179.027 40.2664ZM193.462 35.4879C193.388 37.6195 192.784 39.2832 191.648 40.4791C190.513 41.675 189.027 42.2413 187.192 42.178C185.342 42.1142 183.891 41.4466 182.841 40.1752C181.798 38.9041 181.314 37.2028 181.387 35.0713C181.461 32.9397 182.061 31.2759 183.189 30.0797C184.325 28.8759 185.818 28.306 187.669 28.3698C189.504 28.4332 190.946 29.1044 191.997 30.3836C193.047 31.6549 193.536 33.3564 193.462 35.4879ZM191.19 35.4095C191.248 33.7152 190.96 32.4467 190.325 31.604C189.689 30.7534 188.782 30.3078 187.603 30.2672C186.409 30.2259 185.465 30.6077 184.773 31.4124C184.089 32.2096 183.718 33.4554 183.659 35.1497C183.603 36.7893 183.892 38.0461 184.526 38.9201C185.16 39.7862 186.071 40.2398 187.258 40.2807C188.429 40.3211 189.361 39.9351 190.053 39.1225C190.754 38.3025 191.133 37.0648 191.19 35.4095ZM215.747 42.7998L213.545 42.7238L213.802 35.2751C213.821 34.713 213.813 34.1694 213.776 33.6444C213.747 33.1196 213.656 32.6983 213.503 32.3803C213.335 32.0384 213.086 31.7757 212.756 31.5924C212.426 31.409 211.945 31.3064 211.313 31.2846C210.696 31.2633 210.074 31.3982 209.446 31.6892C208.819 31.9724 208.189 32.3415 207.555 32.7965C207.573 32.9769 207.585 33.1884 207.592 33.431C207.6 33.6658 207.599 33.9003 207.591 34.1345L207.302 42.5084L205.101 42.4325L205.358 34.9838C205.378 34.406 205.369 33.8585 205.332 33.3413C205.303 32.8165 205.212 32.3952 205.059 32.0772C204.891 31.7353 204.642 31.4765 204.312 31.301C203.982 31.1176 203.501 31.015 202.869 30.9932C202.267 30.9725 201.657 31.0999 201.038 31.3756C200.427 31.6516 199.812 32.0095 199.195 32.4494L198.858 42.2171L196.656 42.1411L197.108 29.059L199.31 29.135L199.259 30.5873C199.966 30.041 200.665 29.6195 201.355 29.3228C202.053 29.0264 202.789 28.8916 203.562 28.9182C204.452 28.9489 205.199 29.1623 205.803 29.5584C206.414 29.9547 206.861 30.49 207.143 31.1641C208.059 30.4453 208.889 29.9346 209.635 29.632C210.38 29.3216 211.171 29.1808 212.006 29.2096C213.443 29.2592 214.485 29.7329 215.135 30.6308C215.792 31.5212 216.093 32.7472 216.04 34.3088L215.747 42.7998ZM231.73 36.6442C231.693 37.7061 231.508 38.6729 231.173 39.5447C230.838 40.4086 230.383 41.1356 229.808 41.7254C229.272 42.2854 228.648 42.7134 227.934 43.0093C227.228 43.2976 226.485 43.4283 225.704 43.4014C225.025 43.3779 224.411 43.2825 223.862 43.115C223.32 42.9478 222.77 42.6982 222.211 42.3662L222.022 47.8473L219.82 47.7713L220.438 29.864L222.639 29.94L222.592 31.3103C223.195 30.8386 223.865 30.4513 224.602 30.1484C225.348 29.838 226.134 29.6971 226.962 29.7256C228.539 29.7801 229.744 30.4197 230.578 31.6444C231.419 32.8617 231.803 34.5283 231.73 36.6442ZM229.456 36.6243C229.51 35.0472 229.282 33.8589 228.77 33.0595C228.258 32.2601 227.444 31.8412 226.327 31.8027C225.695 31.7808 225.054 31.8955 224.404 32.1467C223.755 32.3979 223.129 32.7359 222.528 33.1607L222.272 40.5743C222.887 40.8769 223.416 41.0867 223.857 41.2035C224.307 41.3207 224.816 41.3891 225.386 41.4087C226.612 41.451 227.583 41.0702 228.298 40.2663C229.014 39.4624 229.4 38.2484 229.456 36.6243ZM246.099 37.5269L236.46 37.1943C236.432 37.9986 236.529 38.7054 236.75 39.315C236.972 39.9167 237.287 40.4162 237.695 40.8133C238.088 41.2021 238.559 41.4997 239.107 41.7063C239.662 41.9131 240.276 42.028 240.948 42.0512C241.838 42.0819 242.738 41.9371 243.648 41.6167C244.566 41.2888 245.222 40.9597 245.617 40.6293L245.734 40.6334L245.651 43.0343C244.898 43.321 244.132 43.5564 243.352 43.7406C242.571 43.9247 241.756 44.0021 240.905 43.9727C238.734 43.8978 237.06 43.2538 235.882 42.0406C234.705 40.8196 234.154 39.1277 234.228 36.9649C234.302 34.8256 234.942 33.1474 236.149 31.9305C237.364 30.7138 238.924 30.1384 240.829 30.2041C242.593 30.265 243.934 30.8272 244.851 31.8907C245.776 32.9545 246.205 34.435 246.14 36.3323L246.099 37.5269ZM244.014 35.7665C244.046 34.6106 243.784 33.7065 243.228 33.0542C242.68 32.4021 241.82 32.0558 240.649 32.0154C239.47 31.9747 238.517 32.2897 237.79 32.9604C237.072 33.6313 236.647 34.4804 236.518 35.5078L244.014 35.7665ZM256.016 44.072C255.598 44.167 255.142 44.2412 254.648 44.2945C254.161 44.3481 253.727 44.3683 253.344 44.3551C252.009 44.309 251.006 43.9148 250.336 43.1725C249.666 42.4302 249.358 41.2666 249.413 39.6816L249.653 32.7248L248.166 32.6734L248.23 30.823L249.717 30.8743L249.847 27.1148L252.049 27.1908L251.919 30.9503L256.463 31.1071L256.399 32.9575L251.855 32.8007L251.649 38.762C251.626 39.4491 251.623 39.9884 251.64 40.3799C251.658 40.7635 251.755 41.1265 251.931 41.4687C252.092 41.7869 252.318 42.0253 252.61 42.1839C252.91 42.335 253.368 42.4211 253.985 42.4424C254.344 42.4548 254.72 42.417 255.114 42.329C255.508 42.2331 255.793 42.153 255.967 42.0887L256.084 42.0927L256.016 44.072ZM261.575 29.0907L259.092 29.0051L259.171 26.7213L261.653 26.8069L261.575 29.0907ZM260.907 44.3581L258.705 44.2821L259.157 31.2L261.359 31.276L260.907 44.3581ZM272.061 44.6257C271.643 44.7207 271.187 44.7948 270.693 44.8481C270.206 44.9017 269.772 44.9219 269.389 44.9087C268.054 44.8626 267.052 44.4684 266.381 43.7261C265.711 42.9838 265.404 41.8202 265.458 40.2352L265.698 33.2784L264.211 33.2271L264.275 31.3766L265.762 31.4279L265.892 27.6685L268.094 27.7444L267.964 31.5039L272.508 31.6607L272.444 33.5112L267.9 33.3544L267.694 39.3157C267.671 40.0028 267.668 40.542 267.686 40.9335C267.704 41.3172 267.801 41.6801 267.976 42.0223C268.137 42.3406 268.364 42.579 268.655 42.7376C268.955 42.8886 269.413 42.9748 270.03 42.9961C270.389 43.0084 270.766 42.9706 271.159 42.8826C271.554 42.7868 271.838 42.7067 272.012 42.6423L272.129 42.6464L272.061 44.6257ZM277.62 29.6444L275.137 29.5587L275.216 27.2749L277.699 27.3606L277.62 29.6444ZM276.952 44.9117L274.751 44.8357L275.202 31.7537L277.404 31.8296L276.952 44.9117ZM293.074 32.3703L287.329 45.2697L285.115 45.1934L280.308 31.9299L282.697 32.0123L286.39 42.5639L290.767 32.2907L293.074 32.3703ZM306.672 39.617L297.033 39.2844C297.006 40.0886 297.102 40.7955 297.324 41.4051C297.545 42.0068 297.86 42.5063 298.269 42.9034C298.662 43.2922 299.132 43.5898 299.68 43.7963C300.236 44.0031 300.849 44.1181 301.521 44.1413C302.411 44.172 303.311 44.0272 304.221 43.7068C305.139 43.3789 305.795 43.0497 306.19 42.7194L306.307 42.7234L306.224 45.1244C305.472 45.4111 304.705 45.6465 303.925 45.8307C303.145 46.0148 302.329 46.0922 301.478 46.0628C299.307 45.9879 297.633 45.3439 296.456 44.1307C295.278 42.9096 294.727 41.2178 294.802 39.055C294.875 36.9156 295.516 35.2375 296.722 34.0206C297.937 32.8039 299.497 32.2285 301.402 32.2942C303.167 32.3551 304.507 32.9173 305.424 33.9808C306.349 35.0446 306.779 36.5251 306.713 38.4224L306.672 39.617ZM304.587 37.8566C304.619 36.7007 304.357 35.7966 303.801 35.1442C303.253 34.4921 302.393 34.1459 301.222 34.1055C300.043 34.0648 299.09 34.3798 298.364 35.0504C297.645 35.7214 297.221 36.5705 297.092 37.5979L304.587 37.8566ZM328.39 46.6866L326.2 46.611L326.248 45.2173C326.049 45.3433 325.777 45.5215 325.433 45.752C325.097 45.9749 324.77 46.1512 324.453 46.281C324.08 46.4479 323.653 46.5817 323.173 46.6824C322.692 46.7909 322.132 46.8341 321.491 46.812C320.312 46.7713 319.326 46.3464 318.534 45.5374C317.741 44.7283 317.365 43.7187 317.407 42.5084C317.441 41.5168 317.68 40.7238 318.122 40.1293C318.573 39.5273 319.199 39.0643 319.999 38.7401C320.808 38.4163 321.773 38.2111 322.893 38.1247C324.014 38.0383 325.216 37.986 326.499 37.9677L326.51 37.6281C326.528 37.1284 326.452 36.7114 326.284 36.3773C326.123 36.0435 325.882 35.7772 325.561 35.5785C325.255 35.3881 324.884 35.2542 324.449 35.1766C324.014 35.0991 323.558 35.0521 323.082 35.0356C322.504 35.0157 321.857 35.0715 321.142 35.2032C320.426 35.327 319.684 35.5203 318.917 35.7831L318.8 35.779L318.877 33.5421C319.311 33.4398 319.936 33.3324 320.753 33.2199C321.57 33.1073 322.372 33.0647 323.161 33.0919C324.082 33.1237 324.88 33.2294 325.554 33.409C326.236 33.581 326.82 33.8592 327.307 34.2434C327.787 34.6195 328.145 35.097 328.383 35.6759C328.621 36.2547 328.726 36.9658 328.697 37.809L328.39 46.6866ZM326.311 43.3902L326.437 39.7479C325.764 39.7638 324.97 39.795 324.054 39.8415C323.145 39.8884 322.423 39.9768 321.887 40.1068C321.248 40.2646 320.727 40.528 320.324 40.8971C319.92 41.2584 319.707 41.7709 319.684 42.4346C319.658 43.1841 319.865 43.758 320.305 44.1562C320.745 44.5466 321.429 44.7579 322.359 44.7899C323.132 44.8166 323.843 44.6926 324.494 44.418C325.144 44.1356 325.75 43.793 326.311 43.3902ZM343.569 47.2103L341.367 47.1343L341.624 39.6856C341.645 39.0844 341.629 38.521 341.577 37.9955C341.525 37.4621 341.41 37.0439 341.233 36.7407C341.049 36.406 340.777 36.1543 340.415 35.9855C340.054 35.8089 339.58 35.7104 338.995 35.6902C338.394 35.6695 337.76 35.7961 337.094 36.0702C336.428 36.3443 335.786 36.7013 335.169 37.1412L334.832 46.9088L332.63 46.8328L333.082 33.7508L335.283 33.8268L335.233 35.279C335.94 34.7328 336.666 34.3122 337.411 34.0174C338.156 33.7226 338.915 33.5886 339.688 33.6152C341.101 33.664 342.164 34.1267 342.876 35.0034C343.589 35.88 343.917 37.1186 343.862 38.7192L343.569 47.2103ZM357.974 47.7073L355.784 47.6318L355.832 46.2381C355.633 46.3641 355.361 46.5423 355.017 46.7728C354.681 46.9957 354.354 47.172 354.037 47.3018C353.664 47.4687 353.237 47.6025 352.757 47.7032C352.276 47.8117 351.716 47.8549 351.075 47.8328C349.896 47.7921 348.91 47.3672 348.118 46.5582C347.325 45.7491 346.949 44.7394 346.991 43.5292C347.025 42.5376 347.264 41.7446 347.706 41.1501C348.157 40.5481 348.783 40.0851 349.583 39.7609C350.392 39.437 351.357 39.2319 352.477 39.1455C353.598 39.0591 354.8 39.0068 356.083 38.9885L356.094 38.6488C356.112 38.1491 356.036 37.7322 355.868 37.3981C355.707 37.0642 355.466 36.798 355.145 36.5993C354.839 36.4089 354.468 36.2749 354.033 36.1974C353.598 36.1198 353.142 36.0729 352.666 36.0564C352.088 36.0365 351.441 36.0923 350.725 36.224C350.01 36.3478 349.268 36.5411 348.501 36.8039L348.384 36.7998L348.461 34.5629C348.895 34.4606 349.52 34.3532 350.337 34.2406C351.153 34.1281 351.956 34.0855 352.745 34.1127C353.666 34.1445 354.464 34.2502 355.138 34.4298C355.82 34.6018 356.404 34.8799 356.891 35.2642C357.371 35.6403 357.729 36.1178 357.967 36.6967C358.205 37.2755 358.31 37.9866 358.281 38.8298L357.974 47.7073ZM355.895 44.411L356.021 40.7687C355.348 40.7845 354.554 40.8158 353.638 40.8623C352.729 40.9091 352.007 40.9976 351.471 41.1276C350.832 41.2854 350.311 41.5488 349.908 41.9179C349.504 42.2792 349.291 42.7917 349.268 43.4554C349.242 44.2049 349.449 44.7788 349.889 45.177C350.329 45.5674 351.013 45.7787 351.942 45.8107C352.715 45.8374 353.427 45.7134 354.078 45.4388C354.728 45.1564 355.334 44.8138 355.895 44.411ZM364.439 47.9304L362.238 47.8544L362.866 29.6309L365.068 29.7069L364.439 47.9304ZM380.561 35.3891L372.307 53.0329L369.953 52.9517L372.577 47.578L367.795 34.9486L370.184 35.031L373.867 44.867L378.254 35.3095L380.561 35.3891ZM392.467 45.1218C392.426 46.3164 391.896 47.2792 390.878 48.0102C389.868 48.7414 388.508 49.0775 386.798 49.0185C385.83 48.9851 384.944 48.8412 384.139 48.5867C383.343 48.3247 382.677 48.0477 382.139 47.7555L382.225 45.2844L382.342 45.2884C383.019 45.8355 383.777 46.2799 384.618 46.6216C385.458 46.9554 386.269 47.1358 387.05 47.1628C388.018 47.1962 388.78 47.0662 389.338 46.7727C389.895 46.4793 390.185 45.9968 390.209 45.3253C390.226 44.81 390.091 44.4145 389.804 44.1388C389.516 43.8631 388.954 43.617 388.117 43.4005C387.808 43.3195 387.4 43.2233 386.896 43.1121C386.4 43.0012 385.946 42.8839 385.536 42.7603C384.399 42.4162 383.599 41.943 383.135 41.3407C382.679 40.7309 382.466 39.9966 382.495 39.1377C382.514 38.5989 382.641 38.0952 382.876 37.6265C383.119 37.158 383.473 36.7442 383.939 36.385C384.389 36.0332 384.953 35.7634 385.632 35.5758C386.319 35.3806 387.08 35.2974 387.915 35.3262C388.696 35.3532 389.481 35.478 390.271 35.7007C391.069 35.9158 391.728 36.1692 392.25 36.4607L392.169 38.8148L392.051 38.8108C391.504 38.3776 390.832 38.0065 390.038 37.6977C389.244 37.3811 388.46 37.2094 387.687 37.1827C386.883 37.155 386.198 37.2877 385.633 37.5809C385.068 37.8663 384.775 38.3135 384.754 38.9225C384.736 39.4612 384.889 39.873 385.216 40.1579C385.534 40.4425 386.058 40.6833 386.786 40.8804C387.188 40.9881 387.638 41.0974 388.134 41.2084C388.639 41.3196 389.057 41.42 389.39 41.5097C390.405 41.7792 391.18 42.2085 391.715 42.7976C392.249 43.3945 392.5 44.1693 392.467 45.1218ZM406.667 43.0673L397.029 42.7347C397.001 43.5389 397.098 44.2458 397.319 44.8554C397.54 45.4571 397.855 45.9566 398.264 46.3537C398.657 46.7425 399.127 47.0401 399.675 47.2467C400.231 47.4535 400.845 47.5684 401.516 47.5916C402.406 47.6223 403.306 47.4775 404.216 47.1571C405.134 46.8292 405.791 46.5001 406.185 46.1697L406.302 46.1738L406.219 48.5747C405.467 48.8614 404.7 49.0968 403.92 49.281C403.14 49.4651 402.324 49.5425 401.473 49.5131C399.303 49.4382 397.628 48.7942 396.451 47.581C395.274 46.36 394.722 44.6681 394.797 42.5053C394.871 40.3659 395.511 38.6878 396.718 37.4709C397.932 36.2542 399.492 35.6788 401.397 35.7445C403.162 35.8054 404.503 36.3676 405.42 37.4311C406.344 38.4949 406.774 39.9754 406.709 41.8727L406.667 43.0673ZM404.582 41.3069C404.614 40.151 404.352 39.2469 403.796 38.5946C403.248 37.9425 402.389 37.5962 401.217 37.5558C400.038 37.5151 399.086 37.8301 398.359 38.5008C397.64 39.1717 397.216 40.0208 397.087 41.0482L404.582 41.3069ZM419.263 46.0464C419.222 47.241 418.693 48.2038 417.675 48.9348C416.664 49.666 415.304 50.0021 413.594 49.9431C412.626 49.9097 411.74 49.7658 410.936 49.5113C410.14 49.2493 409.473 48.9723 408.936 48.6801L409.021 46.209L409.138 46.213C409.815 46.7601 410.574 47.2045 411.414 47.5462C412.255 47.8801 413.065 48.0605 413.846 48.0874C414.814 48.1208 415.577 47.9908 416.134 47.6973C416.692 47.4039 416.982 46.9214 417.005 46.2499C417.023 45.7346 416.888 45.3391 416.6 45.0634C416.313 44.7877 415.751 44.5416 414.914 44.3251C414.604 44.2441 414.197 44.1479 413.693 44.0367C413.196 43.9258 412.743 43.8085 412.333 43.6849C411.196 43.3408 410.395 42.8676 409.931 42.2653C409.475 41.6555 409.262 40.9212 409.292 40.0623C409.311 39.5236 409.437 39.0198 409.672 38.5511C409.915 38.0826 410.27 37.6688 410.735 37.3097C411.185 36.9578 411.75 36.688 412.428 36.5004C413.115 36.3052 413.876 36.222 414.712 36.2508C415.493 36.2778 416.278 36.4026 417.068 36.6253C417.865 36.8404 418.525 37.0938 419.046 37.3854L418.965 39.7394L418.848 39.7354C418.3 39.3022 417.629 38.9312 416.834 38.6223C416.04 38.3057 415.257 38.134 414.484 38.1074C413.679 38.0796 412.995 38.2123 412.43 38.5055C411.865 38.7909 411.572 39.2381 411.551 39.8471C411.532 40.3858 411.686 40.7976 412.012 41.0825C412.331 41.3671 412.854 41.6079 413.582 41.805C413.985 41.9127 414.435 42.0221 414.931 42.133C415.435 42.2442 415.854 42.3446 416.187 42.4343C417.202 42.7038 417.976 43.1331 418.511 43.7222C419.046 44.3191 419.296 45.0939 419.263 46.0464Z" fill="black"/>
<path d="M41.3936 48.0698L38.9423 48.4741L38.5704 46.2194L41.0217 45.8151L41.3936 48.0698ZM43.7417 63.1702L41.5679 63.5288L39.4377 50.6134L41.6114 50.2549L43.7417 63.1702ZM58.5186 60.733L56.3448 61.0915L56.1217 59.7387C55.5863 60.3813 55.0042 60.9088 54.3755 61.3213C53.7467 61.7338 53.0354 62.0055 52.2414 62.1365C50.6998 62.3908 49.3762 61.9994 48.2709 60.9623C47.1732 59.924 46.4508 58.3526 46.1037 56.2482C45.9232 55.1537 45.9165 54.1531 46.0837 53.2466C46.2586 52.3389 46.5625 51.5405 46.9952 50.8515C47.4227 50.1793 47.9579 49.6317 48.6008 49.209C49.2514 48.7849 49.9506 48.5113 50.6983 48.3879C51.3766 48.2761 51.99 48.2501 52.5383 48.3101C53.0853 48.3624 53.6727 48.4912 54.3004 48.6965L53.3774 43.1002L55.5511 42.7417L58.5186 60.733ZM55.8204 57.9118L54.5979 50.5002C53.9689 50.3348 53.4148 50.2401 52.9358 50.2162C52.4568 50.1922 51.9436 50.2254 51.3963 50.3157C50.1784 50.5165 49.3002 51.0969 48.7617 52.0567C48.2232 53.0165 48.0824 54.2749 48.3392 55.832C48.5922 57.366 49.0469 58.4906 49.7033 59.2058C50.3584 59.9133 51.2641 60.1717 52.4204 59.981C53.037 59.8793 53.6392 59.6414 54.2268 59.2673C54.8131 58.8856 55.3443 58.4337 55.8204 57.9118ZM72.5798 52.012L63.0638 53.5816C63.1947 54.3755 63.4287 55.0496 63.7655 55.6037C64.1011 56.1501 64.5082 56.5778 64.9867 56.8869C65.4486 57.1908 65.9684 57.3901 66.5462 57.4848C67.1317 57.5783 67.7559 57.5704 68.4189 57.461C69.2976 57.3161 70.1516 56.9971 70.9809 56.504C71.8165 56.0019 72.3953 55.5501 72.717 55.1487L72.8327 55.1296L73.2236 57.4999C72.5422 57.929 71.8371 58.3106 71.1083 58.6446C70.3795 58.9786 69.595 59.2149 68.7548 59.3535C66.6118 59.7069 64.8438 59.4047 63.4505 58.4468C62.0561 57.4811 61.1827 55.9307 60.8306 53.7955C60.4822 51.6834 60.7799 49.9121 61.7238 48.4816C62.6754 47.0499 64.0916 46.1789 65.9724 45.8687C67.7145 45.5813 69.1396 45.8689 70.2479 46.7313C71.3638 47.5924 72.0763 48.9595 72.3852 50.8326L72.5798 52.012ZM70.1892 50.696C69.9933 49.5564 69.5587 48.7215 68.8853 48.1912C68.2196 47.6597 67.3086 47.4892 66.1524 47.6799C64.9884 47.8719 64.1161 48.3681 63.5355 49.1686C62.9626 49.9678 62.7139 50.8838 62.7892 51.9165L70.1892 50.696ZM86.9393 56.0454L84.7771 56.402L84.5501 55.026C84.379 55.1889 84.1475 55.4171 83.8554 55.7107C83.5698 55.9954 83.2843 56.2325 82.9988 56.4221C82.6658 56.6592 82.2737 56.8743 81.8226 57.0674C81.3727 57.2683 80.8317 57.4209 80.1996 57.5252C79.0357 57.7171 77.9854 57.4945 77.0489 56.8571C76.1124 56.2198 75.5456 55.3037 75.3485 54.1089C75.1871 53.13 75.2649 52.3055 75.582 51.6356C75.9055 50.9567 76.4279 50.3796 77.1492 49.9044C77.8783 49.4278 78.7838 49.037 79.8657 48.7318C80.9477 48.4267 82.1157 48.139 83.3697 47.8688L83.3143 47.5335C83.233 47.0402 83.0769 46.6463 82.8463 46.3518C82.6233 46.056 82.3347 45.8423 81.9804 45.7107C81.6428 45.5842 81.2531 45.5258 80.8113 45.5353C80.3694 45.5449 79.9134 45.5884 79.4432 45.6659C78.8728 45.76 78.2496 45.942 77.5735 46.2119C76.8962 46.474 76.2072 46.8094 75.5066 47.2179L75.3909 47.237L75.0267 45.0285C75.4316 44.843 76.0234 44.6147 76.8022 44.3437C77.581 44.0728 78.3596 43.8731 79.1382 43.7447C80.0478 43.5946 80.8506 43.5414 81.5466 43.585C82.2491 43.6195 82.8769 43.7773 83.43 44.0582C83.9741 44.3327 84.4198 44.7303 84.767 45.2511C85.1141 45.7718 85.3564 46.4485 85.4937 47.281L86.9393 56.0454ZM84.2526 53.2223L83.6595 49.6263C83.003 49.7742 82.2301 49.9611 81.3409 50.1869C80.4595 50.4115 79.7688 50.6402 79.2687 50.8731C78.6736 51.1534 78.2145 51.5142 77.8914 51.9555C77.567 52.389 77.4588 52.9334 77.5669 53.5886C77.6889 54.3286 78.0046 54.8506 78.514 55.1546C79.0221 55.4508 79.7348 55.5233 80.6521 55.372C81.4153 55.2462 82.0887 54.9846 82.6725 54.5875C83.255 54.1826 83.7817 53.7275 84.2526 53.2223ZM97.8121 54.1333C97.4214 54.3086 96.9889 54.4709 96.5147 54.6204C96.0482 54.7686 95.6262 54.8739 95.2484 54.9362C93.9303 55.1536 92.8697 54.9643 92.0667 54.3683C91.2637 53.7722 90.7332 52.6918 90.4751 51.127L89.3423 44.2589L87.8738 44.5011L87.5725 42.6742L89.0409 42.432L88.4288 38.7204L90.6025 38.3619L91.2147 42.0735L95.701 41.3335L96.0023 43.1604L91.516 43.9004L92.4867 49.7857C92.5986 50.464 92.7018 50.9934 92.7962 51.3737C92.8893 51.7463 93.0557 52.0831 93.2954 52.384C93.5158 52.6644 93.7846 52.8537 94.1016 52.9518C94.4251 53.041 94.8914 53.0353 95.5003 52.9349C95.8549 52.8764 96.2167 52.7653 96.5855 52.6015C96.9532 52.43 97.216 52.2956 97.3742 52.1983L97.4898 52.1792L97.8121 54.1333ZM110.25 45.7987L100.735 47.3683C100.865 48.1622 101.099 48.8363 101.436 49.3904C101.772 49.9368 102.179 50.3646 102.657 50.6736C103.119 50.9775 103.639 51.1768 104.217 51.2715C104.802 51.365 105.427 51.3571 106.09 51.2477C106.968 51.1028 107.822 50.7838 108.652 50.2907C109.487 49.7886 110.066 49.3369 110.388 48.9354L110.503 48.9163L110.894 51.2866C110.213 51.7158 109.508 52.0973 108.779 52.4313C108.05 52.7653 107.266 53.0016 106.425 53.1402C104.283 53.4936 102.514 53.1914 101.121 52.2335C99.7268 51.2678 98.8535 49.7174 98.5013 47.5822C98.1529 45.4701 98.4507 43.6988 99.3945 42.2683C100.346 40.8366 101.762 39.9656 103.643 39.6554C105.385 39.3681 106.81 39.6556 107.919 40.518C109.035 41.3791 109.747 42.7462 110.056 44.6194L110.25 45.7987ZM107.86 44.4827C107.664 43.3432 107.229 42.5082 106.556 41.9779C105.89 41.4464 104.979 41.2759 103.823 41.4667C102.659 41.6586 101.787 42.1549 101.206 42.9553C100.633 43.7545 100.385 44.6705 100.46 45.7033L107.86 44.4827Z" fill="black"/>
</svg>
