<svg width="932" height="921" viewBox="0 0 932 921" fill="none" xmlns="http://www.w3.org/2000/svg">
<path fill-rule="evenodd" clip-rule="evenodd" d="M252.69 785.332C141.96 755.847 48.8538 670.95 14.2362 552.963C-38.495 373.24 64.4521 184.799 244.175 132.068C339.956 103.965 438.214 120.079 517.086 168.466C547.652 95.3362 609.734 36.1114 691.714 12.0582C836.003 -30.2767 987.292 52.3736 1029.63 196.663C1060.6 302.216 1024.68 411.516 946.676 479.167C1002.07 518.186 1043.36 571.975 1062.48 637.13C1115.21 816.853 979.203 1014.99 758.697 1079.69C538.192 1144.39 316.689 1051.14 263.958 871.419C255.615 842.984 251.997 814.088 252.69 785.332Z" fill="#6FADD4"/>
</svg>
